<svg width="18" height="18" viewBox="0 0 18 18" fill="none" xmlns="http://www.w3.org/2000/svg">
<path d="M9.00344 4.38273C8.09104 4.38273 7.19913 4.65344 6.44049 5.16063C5.68186 5.66781 5.09058 6.3887 4.74142 7.23212C4.39226 8.07554 4.3009 9.00362 4.4789 9.89899C4.6569 10.7944 5.09627 11.6168 5.74143 12.2623C6.38659 12.9079 7.20858 13.3475 8.10345 13.5256C8.99832 13.7037 9.92587 13.6123 10.7688 13.2629C11.6118 12.9136 12.3322 12.3219 12.8391 11.5629C13.3461 10.8038 13.6166 9.91141 13.6166 8.9985C13.6175 8.39209 13.4988 7.79146 13.2673 7.23103C13.0358 6.6706 12.6961 6.1614 12.2675 5.7326C11.8389 5.3038 11.33 4.96384 10.7699 4.73221C10.2098 4.50057 9.60951 4.38181 9.00344 4.38273ZM9.00344 11.999C8.41033 11.999 7.83054 11.823 7.33738 11.4933C6.84423 11.1636 6.45987 10.695 6.23289 10.1467C6.00592 9.59847 5.94653 8.99517 6.06224 8.41313C6.17795 7.83109 6.46356 7.29645 6.88296 6.87682C7.30235 6.4572 7.83668 6.17143 8.4184 6.05565C9.00011 5.93988 9.60307 5.9993 10.151 6.2264C10.699 6.4535 11.1673 6.83808 11.4969 7.33151C11.8264 7.82494 12.0022 8.40506 12.0022 8.9985C12.0007 9.79379 11.6842 10.5561 11.1222 11.1184C10.5601 11.6808 9.79828 11.9974 9.00344 11.999ZM14.8811 4.1977C14.8811 4.41055 14.818 4.61862 14.6998 4.79559C14.5817 4.97257 14.4137 5.1105 14.2171 5.19196C14.0206 5.27341 13.8043 5.29473 13.5957 5.2532C13.3871 5.21168 13.1954 5.10918 13.045 4.95867C12.8946 4.80817 12.7921 4.61641 12.7506 4.40765C12.7091 4.19889 12.7304 3.98251 12.8118 3.78586C12.8932 3.58922 13.0311 3.42114 13.208 3.30289C13.3849 3.18464 13.5928 3.12152 13.8055 3.12152C13.9465 3.12126 14.0862 3.14878 14.2165 3.20252C14.3469 3.25626 14.4654 3.33516 14.5653 3.43473C14.6651 3.53429 14.7444 3.65255 14.7986 3.78278C14.8528 3.913 14.8808 4.05263 14.8811 4.1937V4.1977ZM17.9369 5.28988C17.9667 3.89011 17.4445 2.53487 16.4835 1.51725C15.4644 0.55887 14.1113 0.0369925 12.713 0.0630105C11.2276 -0.0210035 6.77532 -0.0210035 5.28891 0.0630105C3.89099 0.0350595 2.53765 0.555591 1.5184 1.51325C0.559998 2.53127 0.0385658 3.8846 0.0659739 5.28288C-0.0219913 6.77313 -0.0219913 11.2239 0.0659739 12.7101C0.0362138 14.1099 0.558326 15.4651 1.5194 16.4827C2.53888 17.4405 3.89171 17.9623 5.28991 17.937C6.77532 18.021 11.2276 18.021 12.714 17.937C14.113 17.9668 15.4674 17.4444 16.4845 16.4827C17.4423 15.4631 17.9639 14.1092 17.9379 12.7101C18.0209 11.2239 18.0209 6.77313 17.9369 5.28688V5.28988ZM16.0177 14.3084C15.865 14.6956 15.6343 15.0474 15.3401 15.3418C15.0459 15.6361 14.6944 15.8669 14.3073 16.0197C13.1228 16.4897 10.3089 16.3807 9.00344 16.3807C7.69795 16.3807 4.88007 16.4807 3.69954 16.0197C3.31249 15.8669 2.96096 15.6361 2.66675 15.3418C2.37253 15.0474 2.14192 14.6956 1.98921 14.3084C1.5194 13.1232 1.62836 10.3077 1.62836 9.0015C1.62836 7.69528 1.52839 4.87581 1.98921 3.69461C2.14192 3.30735 2.37253 2.95562 2.66675 2.66125C2.96096 2.36687 3.31249 2.13612 3.69954 1.98333C4.88407 1.51325 7.69795 1.62227 9.00344 1.62227C10.3089 1.62227 13.1268 1.52225 14.3073 1.98333C14.6944 2.13612 15.0459 2.36687 15.3401 2.66125C15.6343 2.95562 15.865 3.30735 16.0177 3.69461C16.4875 4.87981 16.3785 7.69528 16.3785 9.0015C16.3785 10.3077 16.4875 13.1242 16.0177 14.3054V14.3084Z" fill="#383A4A"/>
</svg>
