<svg width="18" height="13" viewBox="0 0 18 13" fill="none" xmlns="http://www.w3.org/2000/svg">
<path d="M17.6231 1.9839C17.5211 1.60129 17.3205 1.25214 17.0413 0.971361C16.7621 0.690583 16.4141 0.488007 16.0321 0.383898C13.6987 0.102738 11.3492 -0.0242012 8.9991 0.00390058C6.64931 -0.0244889 4.30022 0.102117 1.9671 0.382898C1.58506 0.487007 1.23705 0.689576 0.957851 0.970354C0.678652 1.25113 0.47805 1.60028 0.376098 1.9829C-0.125366 4.86827 -0.125366 7.81852 0.376098 10.7039C0.47818 11.0839 0.679076 11.4301 0.958355 11.7073C1.23763 11.9844 1.58533 12.1827 1.9661 12.2819C4.29922 12.5627 6.64831 12.6893 8.9981 12.6609C11.3479 12.6893 13.697 12.5627 16.0301 12.2819C16.4114 12.1832 16.7597 11.9851 17.0396 11.7079C17.3194 11.4307 17.5208 11.0843 17.6231 10.7039C18.1246 7.81853 18.1246 4.86827 17.6231 1.9829V1.9839ZM7.1581 9.0209V3.6689L11.8581 6.3449L7.1581 9.0209Z" fill="#383A4A"/>
</svg>
