<svg width="61" height="48" viewBox="0 0 61 48" fill="none" xmlns="http://www.w3.org/2000/svg">
<path d="M43.746 17.1429C43.746 7.67464 33.9537 0 21.873 0C9.79238 0 0 7.67464 0 17.1429C0 20.8146 1.48589 24.2089 3.99288 26.9979C2.58796 30.2379 0.265 32.8029 0.231349 32.8393C0.118117 32.9608 0.0423452 33.1135 0.0134131 33.2784C-0.015519 33.4433 0.00365923 33.6133 0.0685737 33.7672C0.133488 33.9212 0.241288 34.0524 0.378629 34.1445C0.51597 34.2367 0.676821 34.2858 0.84127 34.2857C4.68798 34.2857 7.87954 32.9732 10.172 31.6093C13.5581 33.2957 17.5636 34.2857 21.873 34.2857C33.9537 34.2857 43.746 26.6111 43.746 17.1429ZM20.1905 27.4286V25.6832C19.0032 25.6211 17.8486 25.1989 16.8916 24.4671C16.4815 24.1532 16.4605 23.5275 16.8317 23.1664L18.0673 21.9654C18.3586 21.6825 18.7919 21.6696 19.1326 21.8871C19.5395 22.1464 20.0012 22.2857 20.4807 22.2857H23.4367C24.1203 22.2857 24.6776 21.6514 24.6776 20.8725C24.6776 20.235 24.298 19.6736 23.7554 19.5086L19.0232 18.0621C17.0683 17.4643 15.7023 15.5529 15.7023 13.4132C15.7023 10.7861 17.7056 8.65179 20.1894 8.58429V6.85714C20.1894 6.38357 20.5659 6 21.0307 6H22.7132C23.178 6 23.5545 6.38357 23.5545 6.85714V8.6025C24.7417 8.66464 25.8964 9.08571 26.8533 9.81857C27.2635 10.1325 27.2845 10.7582 26.9133 11.1193L25.6777 12.3204C25.3864 12.6032 24.9531 12.6161 24.6124 12.3986C24.2054 12.1382 23.7438 12 23.2643 12H20.3083C19.6247 12 19.0674 12.6343 19.0674 13.4132C19.0674 14.0507 19.447 14.6121 19.9896 14.7771L24.7218 16.2236C26.6767 16.8214 28.0427 18.7329 28.0427 20.8725C28.0427 23.5007 26.0394 25.6339 23.5556 25.7014V27.4286C23.5556 27.9021 23.1791 28.2857 22.7143 28.2857H21.0317C20.5669 28.2857 20.1905 27.9021 20.1905 27.4286ZM56.5765 40.7132C59.0855 37.9243 60.5714 34.5289 60.5714 30.8571C60.5714 23.685 54.9465 17.55 46.9713 14.9925C47.0617 15.6996 47.1111 16.4164 47.1111 17.1429C47.1111 28.4861 35.7897 37.7143 21.873 37.7143C20.7394 37.7143 19.631 37.6318 18.5363 37.5129C21.852 43.6746 29.6306 48 38.6984 48C43.0078 48 47.0133 47.01 50.3994 45.3236C52.6919 46.6875 55.8835 48 59.7302 48C60.0667 48 60.3706 47.7954 60.502 47.4814C60.6356 47.1664 60.5714 46.8021 60.339 46.5525C60.3064 46.5171 57.9814 43.9554 56.5765 40.7132Z" fill="#00D3D4"/>
</svg>
