<svg width="41" height="48" viewBox="0 0 41 48" fill="none" xmlns="http://www.w3.org/2000/svg">
<path d="M20.5 48C23.7324 48 26.3544 45.3141 26.3544 42H14.6456C14.6456 45.3141 17.2676 48 20.5 48ZM40.212 33.9647C38.4439 32.0184 35.1355 29.0906 35.1355 19.5C35.1355 12.2156 30.1496 6.38438 23.4267 4.95375V3C23.4267 1.34344 22.1162 0 20.5 0C18.8838 0 17.5733 1.34344 17.5733 3V4.95375C10.8504 6.38438 5.86451 12.2156 5.86451 19.5C5.86451 29.0906 2.55615 32.0184 0.78803 33.9647C0.238924 34.5694 -0.0045126 35.2922 6.32742e-05 36C0.0101302 37.5375 1.18796 39 2.93778 39H38.0622C39.812 39 40.9908 37.5375 40.9999 36C41.0045 35.2922 40.7611 34.5684 40.212 33.9647Z" fill="#00D3D4"/>
</svg>
