<svg width="18" height="18" viewBox="0 0 18 18" fill="none" xmlns="http://www.w3.org/2000/svg">
<path d="M18 9.05376C17.9998 7.32337 17.5067 5.62927 16.5793 4.17203C15.6518 2.71479 14.3288 1.55544 12.7668 0.831219C11.2047 0.106999 9.46919 -0.151756 7.76556 0.0855853C6.06193 0.322927 4.46156 1.04643 3.15392 2.17043C1.84628 3.29444 0.886124 4.77187 0.387126 6.42784C-0.111872 8.08381 -0.128817 9.84895 0.338297 11.5143C0.805411 13.1797 1.73702 14.6755 3.02284 15.8247C4.30866 16.9739 5.89484 17.7284 7.5936 17.9988V11.6708H5.30756V9.05376H7.5936V7.05876C7.54534 6.59305 7.59925 6.12236 7.75153 5.6799C7.90381 5.23744 8.15074 4.83399 8.4749 4.49803C8.79907 4.16206 9.19256 3.90176 9.62762 3.73549C10.0627 3.56923 10.5287 3.50105 10.9928 3.53576C11.6678 3.54529 12.3411 3.60445 13.0075 3.71276V5.93976H11.8724C11.6791 5.91411 11.4826 5.9325 11.2973 5.99357C11.112 6.05464 10.9427 6.15683 10.802 6.29259C10.6612 6.42834 10.5526 6.59419 10.4841 6.77787C10.4156 6.96155 10.3891 7.15837 10.4064 7.35376V9.05376H12.9022L12.5046 11.6708H10.4064V17.9988C12.5232 17.6612 14.4509 16.5749 15.8428 14.9353C17.2348 13.2956 17.9997 11.2101 18 9.05376Z" fill="#383A4A"/>
</svg>
