<svg width="43" height="48" viewBox="0 0 43 48" fill="none" xmlns="http://www.w3.org/2000/svg">
<path d="M41.8591 31.3218L28.8297 24.0004L41.8591 16.6791C42.9398 16.0718 43.3214 14.6743 42.7049 13.5818L40.9202 10.4185C40.3037 9.32604 38.9301 8.96547 37.8759 9.61948L25.1648 17.5051L25.4832 2.29823C25.5096 1.03699 24.5177 0 23.2848 0H19.7152C18.4824 0 17.4904 1.03699 17.5169 2.29823L17.8352 17.5051L5.12413 9.61958C4.06994 8.96556 2.69627 9.32613 2.07984 10.4186L0.295069 13.5819C-0.321357 14.6744 0.0603363 16.0719 1.14101 16.6792L14.1703 24.0004L1.14091 31.3218C0.0602447 31.929 -0.321448 33.3266 0.295069 34.419L2.07984 37.5823C2.69627 38.6748 4.06994 39.0354 5.12413 38.3814L17.8352 30.4957L17.5168 45.7026C17.4904 46.9639 18.4824 48.0008 19.7152 48.0008H23.2849C24.5177 48.0008 25.5097 46.9639 25.4833 45.7026L25.1648 30.4957L37.8759 38.3813C38.9301 39.0353 40.3037 38.6747 40.9202 37.5822L42.7049 34.4189C43.3214 33.3265 42.9398 31.929 41.8591 31.3218Z" fill="#00D3D4"/>
</svg>
