<svg width="18" height="15" viewBox="0 0 18 15" fill="none" xmlns="http://www.w3.org/2000/svg">
<path d="M16.15 3.73782C16.161 3.90199 16.161 4.06617 16.161 4.23034C16.1711 5.64805 15.9064 7.05367 15.3823 8.36548C14.8582 9.67728 14.0852 10.8691 13.1082 11.8716C12.1311 12.8741 10.9696 13.6673 9.69111 14.205C8.41262 14.7428 7.0427 15.0144 5.661 15.004C3.65353 15.0073 1.68781 14.4159 0 13.3007C0.295849 13.3343 0.593357 13.35 0.891 13.3479C2.55139 13.3523 4.1648 12.7826 5.471 11.7308C4.70146 11.7158 3.95566 11.4549 3.33746 10.9844C2.71925 10.514 2.25942 9.85741 2.022 9.10618C2.25356 9.14375 2.48756 9.1633 2.722 9.16467C3.04967 9.1636 3.37591 9.12016 3.693 9.03538C2.85688 8.86273 2.10486 8.39823 1.56485 7.72087C1.02484 7.04351 0.730185 6.19512 0.731 5.32001V5.27282C1.24256 5.56603 1.81446 5.73093 2.4 5.75404C1.61708 5.21812 1.06298 4.39587 0.850752 3.45506C0.638529 2.51426 0.784186 1.52582 1.258 0.691448C2.1847 1.86169 3.34078 2.81899 4.65125 3.5013C5.96173 4.1836 7.39735 4.57566 8.865 4.65205C8.80593 4.36698 8.77544 4.07646 8.774 3.78502C8.77483 3.02581 8.9979 2.28436 9.41431 1.65678C9.83072 1.0292 10.4213 0.544445 11.1094 0.265342C11.7975 -0.0137609 12.5515 -0.0743375 13.2735 0.091469C13.9956 0.257275 14.6525 0.641819 15.159 1.19525C15.985 1.03191 16.7772 0.72257 17.5 0.281022C17.2249 1.15578 16.6482 1.89749 15.878 2.36701C16.6098 2.28116 17.325 2.08369 18 1.78113C17.495 2.53547 16.8695 3.19698 16.15 3.73782Z" fill="#383A4A"/>
</svg>
