<svg width="52" height="44" viewBox="0 0 52 44" fill="none" xmlns="http://www.w3.org/2000/svg">
<path d="M11.922 44C7.94799 44 4.94634 42.5546 2.91707 39.6638C0.972359 36.6879 0 32.5642 0 27.2928C0 21.2561 1.47968 15.942 4.43902 11.3507C7.39835 6.75942 11.922 2.97585 18.0098 0L22.0683 8.16232C18.2634 10.1179 15.3886 12.371 13.4439 14.9217C11.5837 17.3874 10.6537 20.5333 10.6537 24.3594C10.9073 24.2744 11.3301 24.2319 11.922 24.2319C14.6276 24.2319 16.9105 25.0822 18.7707 26.7826C20.7154 28.3981 21.6878 30.6512 21.6878 33.542C21.6878 36.7729 20.7577 39.3237 18.8976 41.1942C17.0374 43.0648 14.7122 44 11.922 44ZM41.8537 44C37.8797 44 34.8781 42.5546 32.8488 39.6638C30.9041 36.6879 29.9317 32.5642 29.9317 27.2928C29.9317 21.2561 31.4114 15.942 34.3707 11.3507C37.3301 6.75942 41.8537 2.97585 47.9415 0L52 8.16232C48.1951 10.1179 45.3203 12.371 43.3756 14.9217C41.5154 17.3874 40.5854 20.5333 40.5854 24.3594C40.839 24.2744 41.2618 24.2319 41.8537 24.2319C44.5593 24.2319 46.8423 25.0822 48.7024 26.7826C50.6471 28.3981 51.6195 30.6512 51.6195 33.542C51.6195 36.7729 50.6895 39.3237 48.8293 41.1942C46.9691 43.0648 44.6439 44 41.8537 44Z" fill="#00D3D4"/>
</svg>
